PathFileType	4	(X/Y/Z)	c:/Users/goper/Files/vsCode/490R/osim_files/A06/A06_Slow_04.trc
DataRate	CameraRate	NumFrames	NumMarkers	Units                	OrigDataRate	OrigDataStartFrame	OrigNumFrames
120.00	120.00	7	36	mm	120.0	869	1390
                Frame#	Time	LPSIS			LASIS			LTH1			LTH2			LTH3			LTH4			LLFE			LMFE			LSH1			LSH2			LSH3			LSH4			LLMAL			LMMAL			LCAL			LMTP5			LTOE			LMTP1			RPSIS			RASIS			RTH1			RTH2			RTH3			RTH4			RLFE			RMFE			RSH1			RSH2			RSH3			RSH4			RLMAL			RMMAL			RCAL			RMTP1			RTOE			RMTP5		
		X1	Y1	Z1	X2	Y2	Z2	X3	Y3	Z3	X4	Y4	Z4	X5	Y5	Z5	X6	Y6	Z6	X7	Y7	Z7	X8	Y8	Z8	X9	Y9	Z9	X10	Y10	Z10	X11	Y11	Z11	X12	Y12	Z12	X13	Y13	Z13	X14	Y14	Z14	X15	Y15	Z15	X16	Y16	Z16	X17	Y17	Z17	X18	Y18	Z18	X19	Y19	Z19	X20	Y20	Z20	X21	Y21	Z21	X22	Y22	Z22	X23	Y23	Z23	X24	Y24	Z24	X25	Y25	Z25	X26	Y26	Z26	X27	Y27	Z27	X28	Y28	Z28	X29	Y29	Z29	X30	Y30	Z30	X31	Y31	Z31	X32	Y32	Z32	X33	Y33	Z33	X34	Y34	Z34	X35	Y35	Z35	X36	Y36	Z36

869	7.23333	-1726.46741	969.34961	369.97333	-1918.41870	927.02423	433.18478	-1805.56641	557.51501	479.72803	-1808.64685	515.30450	475.50269	-1868.77771	552.23987	471.39642	-1860.92175	509.42783	469.91199	-1817.86804	439.63913	464.50769	-1828.29492	430.17773	355.61115	-1709.67151	415.62332	475.43829	-1679.83167	380.79428	482.17139	-1752.04858	370.49368	472.11441	-1718.54468	344.79526	475.84195	-1490.90845	209.57936	443.57440	-1514.38770	198.64259	363.08469	-1456.36426	264.13721	391.57785	-1492.94434	82.01902	457.47467	-1533.31384	58.02101	405.74442	-1518.41467	76.76113	366.37936	-1723.60803	984.33374	239.70131	-1895.83960	955.21710	173.53905	-1890.54871	583.40601	151.93488	-1894.89685	539.15381	149.95335	-1828.58862	571.39502	146.85504	-1841.27966	530.56030	147.29327	-1886.13184	422.71094	175.63809	-1892.22925	427.63010	264.22827	-1891.12524	266.37567	194.88315	-1899.60303	219.63824	198.64256	-1951.80847	272.90970	202.83847	-1952.21985	224.10825	201.01877	-1925.40002	93.48083	193.40205	-1942.72961	101.45304	276.70959	-1874.35901	75.21035	245.81097	-2076.68970	62.05935	264.36194	-2088.92090	73.80424	221.66325	-2059.46533	54.30301	175.50195
870	7.24167	-1735.14172	971.13727	369.14789	-1926.92334	928.95703	432.42435	-1821.89099	557.05170	478.83621	-1825.98364	514.87677	474.08151	-1885.32642	553.28638	470.08252	-1878.26514	510.37119	468.19315	-1837.28101	439.72836	462.60800	-1846.75525	431.70441	352.79852	-1729.68347	416.91080	473.87442	-1699.81958	381.78778	480.96527	-1771.62329	370.77652	469.86487	-1738.05652	345.30045	473.68491	-1506.79395	215.34779	443.07782	-1530.12720	203.80118	362.45425	-1473.27307	270.54764	390.69537	-1506.25989	88.09469	457.53714	-1545.69910	63.57675	405.51846	-1531.62634	81.72896	366.36591	-1731.28381	986.38647	238.50053	-1904.72986	956.35400	172.72769	-1896.27063	584.14374	151.61951	-1900.26538	539.87720	149.68358	-1833.97522	573.14471	145.94786	-1846.48975	531.55109	147.03323	-1890.26575	423.47632	175.43690	-1896.26147	428.43359	264.00116	-1893.71606	267.08972	194.79768	-1901.64404	220.39229	198.58466	-1954.28552	273.01404	202.76274	-1954.28857	224.19334	200.91302	-1926.16943	93.82741	193.55684	-1943.32263	101.55896	276.70007	-1874.68970	75.65263	245.91795	-2077.14722	61.36246	264.41312	-2089.41650	73.17197	221.77943	-2059.84229	53.90714	175.62326
871	7.25000	-1743.91223	972.92822	368.27728	-1935.28320	930.73334	431.87192	-1838.20605	556.84210	477.61111	-1843.36768	514.74872	472.55582	-1901.78394	554.67554	468.63007	-1895.75000	511.71854	466.40607	-1856.58142	440.44781	460.63156	-1865.02759	433.47388	349.94519	-1750.40137	417.82877	472.81436	-1719.54578	383.09537	479.73465	-1791.08582	371.55154	467.69373	-1757.37146	346.28519	471.41550	-1523.32544	220.34538	442.65024	-1546.11182	209.44356	361.40884	-1489.14246	276.07196	389.77551	-1523.51392	94.11585	457.40833	-1563.17603	68.80238	405.42825	-1548.54358	87.35944	366.32065	-1741.50244	987.18225	238.13454	-1913.55725	957.46600	172.03461	-1901.58582	584.67560	151.45003	-1905.18506	540.33850	149.40347	-1839.71265	574.18506	146.20410	-1851.78748	532.74634	146.87451	-1894.22217	424.22849	175.30746	-1900.33411	429.15869	263.86118	-1896.07678	267.83069	194.74438	-1903.63672	220.97089	198.52963	-1956.75708	273.20291	202.68102	-1956.32007	224.41199	200.90981	-1926.57898	94.09908	193.72029	-1943.87720	101.70549	276.76764	-1874.99939	76.00373	246.00908	-2077.42407	60.86377	264.53650	-2089.82788	72.66308	221.88094	-2060.12720	53.61123	175.73181
872	7.25833	-1752.25757	974.78943	367.29297	-1943.56482	932.48553	431.46292	-1854.53845	556.94098	476.14978	-1860.61646	515.04388	470.83124	-1918.15479	556.29449	466.90265	-1913.11011	513.23657	464.36859	-1875.71838	441.40604	458.54852	-1883.05444	435.54651	347.25293	-1769.40344	419.60010	471.50287	-1738.70007	385.10672	478.29797	-1809.98059	373.00391	465.54834	-1776.09497	347.92496	469.11041	-1539.88489	226.64545	440.77518	-1562.93347	214.24757	360.19501	-1504.61157	280.15207	388.66617	-1543.74731	99.43036	457.26859	-1583.30481	74.60804	404.88235	-1567.58191	92.35224	365.76849	-1750.06311	988.91986	237.08067	-1922.46960	958.46332	171.58870	-1907.27881	585.33069	151.28879	-1910.29980	540.98358	149.33432	-1844.49329	575.89026	145.71640	-1856.74683	534.00372	146.64922	-1898.15173	425.04874	175.13715	-1904.20520	429.89145	263.76492	-1898.34094	268.62814	194.63110	-1905.48523	221.71162	198.40292	-1959.15930	273.39462	202.63057	-1958.19580	224.53972	200.93565	-1926.82251	94.42834	193.77596	-1944.13135	101.80991	276.78516	-1875.12354	76.29850	246.05171	-2077.55518	60.30076	264.71933	-2090.09473	72.20609	222.06326	-2060.38110	53.39784	175.88916
873	7.26667	-1760.57959	976.57538	366.34247	-1951.71741	934.15173	431.33005	-1871.05200	557.58508	474.65933	-1878.04492	515.86731	469.04031	-1934.62878	558.47772	465.08466	-1930.51245	515.29657	462.32410	-1894.63831	443.04263	456.56531	-1900.60425	437.90335	344.40616	-1788.64844	421.96045	469.86606	-1757.68274	387.67834	476.63782	-1828.82886	375.09229	463.34744	-1794.75098	350.15561	466.89804	-1557.98413	230.56442	439.54163	-1580.26392	218.44485	358.75555	-1520.66357	282.94611	387.52866	-1565.38855	103.80785	456.77411	-1604.84009	79.52145	404.03775	-1588.42859	97.10935	365.08890	-1758.55933	990.93384	235.97784	-1931.20178	959.31598	171.36298	-1912.76929	586.06232	151.27402	-1915.42041	541.66052	149.23744	-1849.37341	577.43414	145.48834	-1861.77173	535.14240	146.58861	-1902.01404	425.84927	175.07825	-1908.14771	430.66006	263.68704	-1900.74512	269.45856	194.68480	-1907.30286	222.42433	198.46300	-1961.57690	273.60471	202.67848	-1960.14465	224.81728	200.89581	-1927.26575	94.72874	193.95041	-1944.44714	101.86883	276.88675	-1875.33960	76.54063	246.20277	-2077.88330	59.90516	265.08130	-2090.46753	71.76817	222.25046	-2060.58667	53.17907	176.00371
874	7.27500	-1768.65894	978.46112	365.37988	-1959.58362	935.76239	431.26691	-1887.60767	558.79517	473.22592	-1895.51367	517.31653	467.31052	-1951.17932	561.25916	463.12024	-1947.93457	517.92505	460.14447	-1913.70386	446.15808	454.72772	-1918.29419	440.71631	341.85291	-1808.19165	424.14813	468.17203	-1776.75220	390.56165	474.91141	-1847.80884	377.61685	461.18167	-1813.59949	352.84857	464.76071	-1576.86243	233.23364	438.30173	-1598.48975	221.33482	357.30109	-1537.61987	284.59866	386.35507	-1587.41418	106.99424	455.73880	-1626.85376	83.25652	402.83221	-1609.59412	100.29623	363.91733	-1767.17664	992.34039	235.01732	-1940.11560	960.19336	171.11772	-1918.28723	586.71417	151.16916	-1920.42517	542.25989	149.27248	-1854.82666	578.71973	145.41234	-1866.86560	536.21918	146.58742	-1906.03137	426.66058	175.29694	-1912.07947	431.35086	263.70090	-1902.97278	270.27783	194.66820	-1909.15283	223.21597	198.45486	-1963.95764	273.80475	202.75301	-1961.96765	225.05887	200.99985	-1927.74341	95.02253	194.15709	-1944.85217	101.97507	277.04050	-1875.57263	76.78464	246.35753	-2078.00391	59.44735	264.95969	-2090.83911	71.37328	222.39874	-2060.35547	53.29874	175.82410
875	7.28333	-1776.34363	980.24524	364.40170	-1967.36926	937.29425	431.31656	-1903.84570	560.43860	471.78769	-1912.61218	519.20477	465.72308	-1967.29321	564.26984	461.06052	-1965.50867	521.14148	458.21133	-1932.02832	448.96411	452.67389	-1935.88525	443.80237	339.46228	-1827.08386	426.84497	466.37939	-1795.91870	393.29111	473.18222	-1866.75732	380.13547	459.12579	-1832.53564	355.37576	462.72928	-1595.95801	234.59149	436.90842	-1617.47644	223.11597	355.85614	-1555.26685	284.60242	385.23691	-1609.63733	108.81908	454.58408	-1649.27783	86.02255	401.45312	-1631.46545	102.20351	362.54697	-1775.69800	993.82654	233.94916	-1948.81348	960.91608	171.01244	-1923.67993	587.24457	151.25627	-1925.35718	542.80713	149.29489	-1860.15979	579.89093	145.46451	-1872.66296	537.16107	146.60909	-1909.79834	427.38242	175.30952	-1915.76868	432.02365	263.75165	-1905.16919	270.95221	194.73355	-1911.00208	223.76167	198.50908	-1966.32251	273.99750	202.75714	-1963.77454	225.22858	201.01477	-1928.06982	95.26079	194.30731	-1945.01733	102.02435	277.09653	-1875.64661	76.97108	246.45435	-2078.19678	59.10461	264.96460	-2091.01660	71.00624	222.42805	-2061.00977	53.33693	176.17680
